<?xml version="1.0" encoding="UTF-8"?><svg id="Layer_2" xmlns="http://www.w3.org/2000/svg" viewBox="0 0 544.85 157.08"><defs><style>.cls-1{fill:#fff;}</style></defs><path class="cls-1" d="M54.98,152.98c-16.52,3.07-32.36,1.01-48.14,1.48C1.48,154.62,0,151.39,0,146.67,.05,104.91,.07,63.14,0,21.37c0-5.75,2.8-7.64,8.14-7.58,12.12,.13,24.25-.07,36.38,.04,15.25,.13,27.02,6.69,32.74,20.93,5.8,14.44,4.03,28.42-7.09,40.3-1.36,1.45-2.94,2.69-5.32,4.84,16.42,13.2,17.74,30.93,13.87,49.39-2.54,12.08-11.2,19.62-23.75,23.7m-11.88-65.32q-28.03-.16-28.02,27.88c.01,27.88,1.37,29.05,29.4,25.26,14.05-1.9,21.77-11.28,21.93-26.64,.16-15.73-6.72-24.19-23.3-26.5m22.26-42.1c-5.04-15.07-10.52-18.36-31.3-18.21-20.93,.15-19.18-2.67-18.87,18.76,.45,31.35-5.79,26.47,27.2,26.67,16.11,.1,23.96-9.02,22.97-27.22Z"/><path class="cls-1" d="M286.15,135.58c-.48,6.52,1.13,12.31-1.39,17.52-6.51,1.62-6.71-5.24-11.54-7.1-8.83,8.52-20.13,11.43-32.77,10.59-18.89-1.27-33.88-15.62-34.25-34.54-.49-25.57-.5-51.17-.01-76.75,.36-19.2,15.25-33.07,34.66-33.51,25.51-.58,38.39,6.72,43.86,25.13,.94,3.16,1.06,6.59,1.37,9.91,.57,6.12-3.93,7.15-8.37,7.79-5.4,.78-5.67-3.37-6.34-7.08-3.11-17.22-13.53-24.66-30.68-21.94-12.04,1.91-19.26,9.63-19.4,21.92-.27,24.23-.35,48.48-.04,72.71,.19,14.89,9.23,22.77,24.89,22.75,15.58-.03,24.36-7.94,25.11-22.74,.17-3.36,.1-6.73,.1-10.1,.02-14.62,.03-14.73-14.56-16.38-4.26-.48-7.13-1.84-7.29-6.52-.16-4.69,1.6-7.85,6.76-8.15,.34-.02,.67-.04,1.01-.08,27.92-3.22,28.91-2.35,28.91,25.31,0,10.1-.01,20.2-.02,31.28Z"/><path class="cls-1" d="M165.68,71.06c0-16.84,.04-32.67,.01-48.49,0-4.77,.54-8.64,6.88-8.75,6.3-.11,8.26,2.96,8.24,8.65-.08,33,.35,66.01-.26,99-.31,16.99-10.52,29.07-25.85,33.5-18.26,5.28-37.56,.42-47.07-12.04-4.38-5.74-6.88-12.14-6.85-19.62,.12-33,0-66,.03-99.01,0-4.93-1.02-10.62,7.11-10.37,7.41,.23,6.42,5.48,6.43,10.04,.07,30.64-.03,61.29,.07,91.93,.07,21.09,16.48,32.4,36.37,25.16,9.51-3.46,14.85-10.08,14.85-20.52,0-16.16,.02-32.33,.04-49.5Z"/><path class="cls-1" d="M349.52,72.41c20.27-7.83,33.64,.79,33.49,21.78-.13,18.44-6.33,35.07-18.78,48.85-10.55,11.68-23.72,13.94-37.44,7.16-3.54,1.87-6.83,6.33-11.55,3.15-5.17-3.49-2.61-8.68-1.55-12.97,10.61-43.07,21.44-86.08,32.23-129.11,.33-1.3,.91-2.54,1.25-3.84,1.26-4.75,3.89-8.23,9.2-7.28,6.51,1.17,4.96,6.71,4.04,10.57-4.17,17.66-9.06,35.16-13.1,52.84-.58,2.52-5.25,7.25,2.21,8.84m-8.26,68.82c7.41,.36,11.78-4.36,15.49-9.71,7.29-10.48,10.8-22.36,11.91-34.95,.48-5.55-.1-11.19-6.04-13.73-5.87-2.5-10.58,.72-14.27,4.88-11,12.39-15.71,27.19-15.59,43.59,.03,4.7,1.77,8.58,8.5,9.92Z"/><path class="cls-1" d="M393.02,132.59c.07-20.66,5.47-38.55,19.77-53.03,5.36-5.43,11.9-8.86,19.31-10.31,8.27-1.62,15.73,.56,20.35,7.82,4.78,7.52,2.59,14.91-2.85,21.36-9.1,10.8-20.64,18.35-33.63,23.42-7.32,2.86-11.03,7.19-7.62,14.45,3.4,7.23,9.82,5.66,15.69,2.97,10.08-4.61,16.99-13.06,24.56-20.69,3.64-3.67,7.43-8.06,12.69-2.97,5.49,5.31,.38,9.15-2.91,12.69-9.2,9.9-18.78,19.42-32,23.93-18.35,6.26-28.97,.18-33.37-19.65m24.84-39.31c-2.53,4.5-5.5,8.86-5.57,15.48,10.79-3.31,19.22-8.14,25.59-16.2,1.85-2.34,3.63-5.19,1.32-8.18-2.4-3.09-5.84-3.01-9.11-1.73-4.79,1.87-8.42,5.3-12.22,10.63Z"/><path class="cls-1" d="M514.93,112.75c-7.5,3.94-14.24,7.78-21.29,10.92-4.61,2.06-5.96,5.23-4.99,9.66,1.02,4.68,3.6,7.84,8.96,7.93,6.16,.11,11.18-2.64,15.49-6.45,6.3-5.56,12.18-11.6,18.21-17.47,3.34-3.25,6.98-6.1,11.33-2.07,3.8,3.52,2.1,7.42-.68,10.75-10.29,12.32-21.83,22.95-37.89,27.24-16.18,4.33-27.8-3.33-29.04-19.95-1.53-20.52,5-38.64,19.32-53.39,7.73-7.97,17.37-13.08,29.11-10.2,11.88,2.91,16.51,13.64,10.55,24.29-4.36,7.8-11.16,13.38-19.09,18.74m-12.23-23.62c-4.07,5.99-8.27,11.91-9.79,20.44,7.8-2.38,14.16-5.39,19.37-10.03,4.43-3.95,13.18-8.27,8.55-14.78-5.19-7.3-11.8-.48-18.13,4.37Z"/></svg>